<svg width="7" height="11" viewBox="0 0 7 11" fill="none" xmlns="http://www.w3.org/2000/svg">
<path d="M5.00922 9.8219L1.12673 5.83245C1.08065 5.78496 1.04808 5.73351 1.02903 5.6781C1.00968 5.62269 1 5.56332 1 5.5C1 5.43668 1.00968 5.37731 1.02903 5.3219C1.04808 5.26649 1.08065 5.21504 1.12673 5.16755L5.00922 1.16623C5.11674 1.05541 5.25115 1 5.41244 1C5.57373 1 5.71198 1.05937 5.82719 1.1781C5.9424 1.29683 6 1.43536 6 1.59367C6 1.75198 5.9424 1.8905 5.82719 2.00923L2.44009 5.5L5.82719 8.99077C5.93472 9.10158 5.98848 9.23805 5.98848 9.40016C5.98848 9.56259 5.93088 9.70317 5.81567 9.8219C5.70046 9.94063 5.56605 10 5.41244 10C5.25883 10 5.12442 9.94063 5.00922 9.8219Z" fill="#376FFF" stroke="#5685FF"/>
</svg>
