<svg width="446" height="458" viewBox="0 0 446 458" fill="none" xmlns="http://www.w3.org/2000/svg">
<path d="M377.365 74.005C385.575 51.745 393.575 42.885 397.695 39.555C400.755 37.075 403.425 36.135 405.615 36.745C409.615 37.875 414.105 44.195 417.495 53.635C428.385 83.975 427.495 137.915 416.565 183.145L377.365 74.005ZM91.365 146.925C98.885 115.925 101.645 80.795 99.135 52.005L55.535 47.145L91.365 146.925ZM380.825 33.925L79.625 0.395006C77.125 0.115006 74.385 1.85501 72.515 3.39501C68.845 6.39501 62.095 13.715 54.855 31.035L363.535 65.375C368.695 52.125 374.555 41.485 380.845 33.945L380.825 33.925ZM152.045 332.635V261.915L162.805 263.105L205.045 268.285V338.795L152.045 332.635ZM168.045 292.295C168.078 294.306 168.578 296.283 169.504 298.068C170.431 299.854 171.759 301.4 173.385 302.585L171.045 327.005L188.045 328.745L184.045 303.745C185.676 302.87 187.018 301.538 187.906 299.914C188.793 298.289 189.189 296.441 189.045 294.595C188.865 291.565 187.68 288.682 185.676 286.401C183.673 284.121 180.967 282.574 177.985 282.005C177.985 282.005 178.155 282.105 178.115 282.105C172.165 281.425 167.045 286.005 168.045 292.205V292.295ZM221.045 356.745L136.045 346.905V260.185L134.995 260.095C134.688 261.857 133.81 263.468 132.496 264.681C131.182 265.894 129.506 266.64 127.725 266.805C129.507 267.432 131.01 268.67 131.968 270.299C132.925 271.928 133.275 273.843 132.955 275.705C132.635 277.587 131.653 279.293 130.186 280.514C128.719 281.735 126.864 282.392 124.955 282.365C133.408 286.369 129.296 299.143 120.095 297.465C121.753 298.608 122.919 300.334 123.36 302.298C123.802 304.263 123.486 306.322 122.476 308.064C121.466 309.806 119.836 311.103 117.912 311.697C115.988 312.29 113.911 312.136 112.095 311.265C113.46 312.893 114.121 314.997 113.935 317.114C113.748 319.23 112.728 321.185 111.1 322.55C109.472 323.915 107.368 324.576 105.251 324.39C103.135 324.203 101.18 323.183 99.815 321.555V321.645C100.113 323.268 99.9026 324.943 99.2115 326.442C98.5205 327.94 97.3831 329.188 95.955 330.015L105.085 335.365V349.615L93.085 356.745L81.085 349.625V335.365L89.235 330.545C87.9656 330.056 86.8377 329.258 85.9527 328.225C85.0677 327.192 84.4534 325.955 84.165 324.625C84.161 324.592 84.161 324.558 84.165 324.525C83.4304 326.446 81.9842 328.01 80.1268 328.893C78.2694 329.775 76.1434 329.909 74.1901 329.266C72.2368 328.622 70.6063 327.251 69.6371 325.438C68.6678 323.624 68.4343 321.506 68.985 319.525C62.134 326.739 50.891 317.46 56.675 309.365C48.329 313.884 40.458 302.689 47.535 296.365C38.365 299.026 33.082 286.282 41.445 281.675C39.3895 282.045 37.2708 281.596 35.5416 280.425C33.8123 279.254 32.6097 277.453 32.1906 275.407C31.7714 273.361 32.169 271.232 33.2985 269.475C34.4279 267.719 36.1996 266.473 38.235 266.005C28.941 264.958 28.687 251.542 37.935 250.145C37.266 249.981 36.671 249.672 36.105 249.385L18.865 247.525L19.465 414.635L328.645 449.125L328.045 283.295L221.045 270.245V356.745ZM361.105 192.745L365.825 194.655L366.735 195.235L405.455 199.545L382.195 134.775L369.375 171.775C369.215 172.235 365.965 181.575 361.105 192.765V192.745ZM152.565 153.005L157.565 158.495L170.315 147.345L191.765 145.065L208.375 160.415L218.885 169.145L237.425 159.855L240.865 160.355C240.985 159.685 241.115 159.015 241.245 158.355C244.325 142.255 248.595 128.195 248.775 127.605L262.165 83.695L279.045 126.405L287.465 147.825L298.125 135.435L320.265 109.705L326.045 143.155L329.335 162.255L346.435 152.615L381.525 132.825L363.045 81.425L115.185 53.815C117.695 88.755 113.335 131.135 102.795 165.815H105.115L112.115 152.955H152.575L152.565 153.005ZM41.275 250.395C48.875 252.495 49.175 263.161 41.705 265.685C49.442 266.552 51.507 276.838 44.705 280.625C52.358 280.077 56.319 289.572 50.545 294.625C57.858 292.51 63.713 300.841 59.245 307.005C65.533 303.487 72.902 309.422 70.805 316.315C75.335 311.592 83.311 314.011 84.455 320.455C86.512 314.742 93.935 313.314 97.965 317.855C96.68 311.451 103.195 306.289 109.135 309.005C104.571 303.235 109.56 294.882 116.805 296.165C110.386 291.624 113.683 281.517 121.545 281.635C114.229 278.132 116.17 267.22 124.245 266.455C122.6 265.888 121.185 264.8 120.215 263.356C119.244 261.913 118.77 260.192 118.865 258.455L42.435 250.195C42.025 250.385 41.689 250.345 41.275 250.395ZM408.815 389.475L408.225 225.615L399.555 232.615L344.045 279.405L344.625 441.405L408.815 389.475ZM382.585 224.275L358.475 209.005L354.295 207.315C348.385 218.835 340.905 230.315 331.635 235.195C326.195 238.075 319.415 239.535 311.475 239.535C300.345 239.535 286.725 236.625 274.125 231.535C264.125 227.535 250.825 220.535 243.865 210.195C238.965 202.905 237.225 192.425 238.555 177.275L216.775 188.205L197.775 172.405L186.355 161.875L177.195 162.875L156.745 180.705L145.745 169.005H121.535L103.925 201.005L98.225 193.805L93.805 198.655L83.045 215.005L70.755 219.915L64.611 229H52.411L49.635 235.005L126.535 243.215C126.982 242.114 127.665 241.124 128.535 240.315C129.923 239.034 131.719 238.284 133.606 238.2C135.493 238.116 137.349 238.702 138.845 239.855C138.792 239.779 138.745 239.699 138.705 239.615C133.75 231.247 145.164 222.995 151.575 230.24C157.987 237.485 148.408 247.811 140.705 241.875C141.263 242.756 141.644 243.738 141.825 244.765L164.445 247.205L332.985 267.775L384.475 224.395L382.585 224.275ZM354.245 166.545L317.365 187.335L310.225 145.865L282.225 178.375L264.095 132.265C264.095 132.265 247.445 186.845 257.095 201.265C264.785 212.715 292.515 223.515 311.425 223.515C316.425 223.515 320.855 222.755 324.095 221.035C337.895 213.725 354.245 166.545 354.245 166.545ZM37.165 437.345V437.145C37.165 433.375 28.955 430.315 18.835 430.315C8.715 430.315 0.505005 433.375 0.505005 437.145C0.505005 440.355 6.505 443.045 14.505 443.775V443.975C14.505 447.745 22.715 450.805 32.835 450.805C42.955 450.805 51.165 447.745 51.165 443.975C51.155 440.765 45.185 438.075 37.165 437.345ZM387.165 443.975C377.035 443.975 368.835 447.035 368.835 450.805C368.835 454.575 377.045 457.635 387.165 457.635C397.285 457.635 405.495 454.575 405.495 450.805C405.495 447.035 397.245 444.005 387.115 444.005L387.165 443.975ZM427.165 427.695C417.035 427.695 408.835 430.755 408.835 434.525C408.835 438.295 417.045 441.355 427.165 441.355C437.285 441.355 445.495 438.295 445.495 434.525C445.495 430.755 437.275 427.695 427.155 427.695H427.165Z" fill="white"/>
</svg>
