<svg width="20" height="22" viewBox="0 0 20 22" fill="none" xmlns="http://www.w3.org/2000/svg">
<path d="M14 3H17C17.5304 3 18.0391 3.21071 18.4142 3.58579C18.7893 3.96086 19 4.46957 19 5V6M14 19H17C17.5304 19 18.0391 18.7893 18.4142 18.4142C18.7893 18.0391 19 17.5304 19 17V16M7.001 11H7M14 11H19M19 11L17 9M19 11L17 13M2.425 18.428L8.425 20.228C8.72368 20.3177 9.03919 20.3362 9.34633 20.2822C9.65347 20.2282 9.94372 20.1031 10.1939 19.917C10.4441 19.7308 10.6473 19.4887 10.7872 19.2101C10.9272 18.9314 11.0001 18.6238 11 18.312V3.688C11.0001 3.37615 10.9272 3.06861 10.7872 2.78993C10.6473 2.51126 10.4441 2.26917 10.1939 2.08301C9.94372 1.89685 9.65347 1.77178 9.34633 1.71778C9.03919 1.66377 8.72368 1.68234 8.425 1.772L2.425 3.572C2.01302 3.69567 1.65189 3.94886 1.39519 4.294C1.13849 4.63915 0.999906 5.05786 1 5.488V16.512C0.999906 16.9421 1.13849 17.3608 1.39519 17.706C1.65189 18.0511 2.01302 18.3043 2.425 18.428Z" stroke="white" stroke-width="2" stroke-linecap="round" stroke-linejoin="round"/>
</svg>
