<svg width="209" height="209" viewBox="0 0 209 209" fill="none" xmlns="http://www.w3.org/2000/svg">
<path d="M178.209 176.809C197.313 157.394 208.019 131.247 208.019 104.009C208.019 76.7716 197.313 50.6251 178.209 31.2095C178.03 30.9281 177.791 30.6892 177.509 30.5095C177.33 30.2281 177.091 29.9892 176.809 29.8095C157.394 10.7062 131.247 0 104.009 0C76.7716 0 50.6251 10.7062 31.2095 29.8095C30.9281 29.9892 30.6892 30.2281 30.5095 30.5095C30.2281 30.6892 29.9892 30.9281 29.8095 31.2095C10.7062 50.6251 0 76.7716 0 104.009C0 131.247 10.7062 157.394 29.8095 176.809L30.5095 177.509C30.6892 177.791 30.9281 178.03 31.2095 178.209C50.6251 197.313 76.7716 208.019 104.009 208.019C131.247 208.019 157.394 197.313 176.809 178.209C177.091 178.03 177.33 177.791 177.509 177.509C177.791 177.33 178.03 177.091 178.209 176.809ZM16.4095 112.009H40.5095C41.9494 123.392 46.4413 134.172 53.5095 143.209L36.4095 160.309C24.9767 146.624 17.9985 129.771 16.4095 112.009ZM36.4095 47.7095L53.5095 64.8095C46.4413 73.8466 41.9494 84.6273 40.5095 96.0095H16.4095C17.9985 78.2476 24.9767 61.3953 36.4095 47.7095ZM191.609 96.0095H167.509C166.07 84.6273 161.578 73.8466 154.509 64.8095L171.609 47.7095C183.042 61.3953 190.02 78.2476 191.609 96.0095ZM104.009 152.009C94.516 152.009 85.2356 149.194 77.3421 143.92C69.4485 138.646 63.2963 131.149 59.6632 122.378C56.0302 113.607 55.0797 103.956 56.9318 94.6451C58.7839 85.334 63.3554 76.7813 70.0683 70.0683C76.7813 63.3554 85.334 58.7839 94.6451 56.9318C103.956 55.0797 113.607 56.0302 122.378 59.6632C131.149 63.2963 138.646 69.4485 143.92 77.3421C149.194 85.2356 152.009 94.516 152.009 104.009C152.009 116.74 146.952 128.949 137.951 137.951C128.949 146.952 116.74 152.009 104.009 152.009ZM143.209 53.5095C134.172 46.4413 123.392 41.9494 112.009 40.5095V16.4095C129.771 17.9985 146.624 24.9767 160.309 36.4095L143.209 53.5095ZM96.0095 40.5095C84.6273 41.9494 73.8466 46.4413 64.8095 53.5095L47.7095 36.4095C61.3953 24.9767 78.2476 17.9985 96.0095 16.4095V40.5095ZM64.8095 154.509C73.8466 161.578 84.6273 166.07 96.0095 167.509V191.609C78.2476 190.02 61.3953 183.042 47.7095 171.609L64.8095 154.509ZM112.009 167.509C123.392 166.07 134.172 161.578 143.209 154.509L160.309 171.609C146.624 183.042 129.771 190.02 112.009 191.609V167.509ZM154.509 143.209C161.578 134.172 166.07 123.392 167.509 112.009H191.609C190.02 129.771 183.042 146.624 171.609 160.309L154.509 143.209Z" fill="white"/>
</svg>
