<svg width="133" height="56" viewBox="0 0 133 56" fill="none" xmlns="http://www.w3.org/2000/svg">
<path d="M42.3267 8.64231C39.0955 3.06923 34.6892 0 29.9091 0H17.0909C12.3108 0 7.90455 3.06923 4.6733 8.64231C1.44205 14.2154 0 20.7308 0 28C0 35.2692 1.65568 42.1615 4.6733 47.3577C7.69091 52.5538 12.3108 56 17.0909 56H29.9091C34.6892 56 39.0955 52.9308 42.3267 47.3577C45.558 41.7846 47 35.2692 47 28C47 20.7308 45.3443 13.8385 42.3267 8.64231ZM42.6739 25.8462H34.1284C33.9148 21.2154 33.0335 16.7731 31.5381 12.9231H39.7097C41.3386 16.5308 42.4335 21 42.6739 25.8462ZM37.1727 8.61539H29.5085C28.6043 7.06266 27.5293 5.61764 26.304 4.30769H29.9091C32.5795 4.30769 35.0898 5.92308 37.1727 8.61539ZM29.9091 51.6923H26.304C27.5293 50.3824 28.6043 48.9373 29.5085 47.3846H37.1727C35.0898 50.0769 32.5795 51.6923 29.9091 51.6923ZM39.7097 43.0769H31.5381C33.0335 39.2269 33.9148 34.7846 34.1284 30.1538H42.6739C42.4335 35 41.3386 39.4692 39.7097 43.0769Z" fill="url(#paint0_linear_8_40)"/>
<path d="M62.072 27.216C60.616 27.216 59.536 26.912 58.832 26.304C58.144 25.696 57.8 24.736 57.8 23.424V11.568C57.8 10.24 58.144 9.272 58.832 8.664C59.536 8.056 60.616 7.752 62.072 7.752H70.232V10.464H61.184C60.976 10.464 60.872 10.568 60.872 10.776V24.192C60.872 24.4 60.976 24.504 61.184 24.504H67.328C67.552 24.504 67.664 24.4 67.664 24.192V19.344H64.64V16.8H70.592V23.424C70.592 24.736 70.24 25.696 69.536 26.304C68.832 26.912 67.752 27.216 66.296 27.216H62.072ZM73.3987 15.744C73.3987 14.416 73.7187 13.48 74.3587 12.936C74.9987 12.376 76.0467 12.096 77.5027 12.096H80.1187C81.5907 12.096 82.6467 12.376 83.2867 12.936C83.9267 13.48 84.2467 14.416 84.2467 15.744V23.568C84.2467 24.896 83.9267 25.84 83.2867 26.4C82.6467 26.944 81.5907 27.216 80.1187 27.216H77.5027C76.0467 27.216 74.9987 26.944 74.3587 26.4C73.7187 25.84 73.3987 24.896 73.3987 23.568V15.744ZM76.6627 14.52C76.4387 14.52 76.3267 14.632 76.3267 14.856V24.456C76.3267 24.68 76.4387 24.792 76.6627 24.792H81.0067C81.2147 24.792 81.3187 24.68 81.3187 24.456V14.856C81.3187 14.632 81.2147 14.52 81.0067 14.52H76.6627ZM87.4496 27V6.792H90.3776V27H87.4496ZM104.21 6.792V27H101.642L101.354 25.32C101.226 25.944 100.946 26.416 100.514 26.736C100.098 27.056 99.4984 27.216 98.7144 27.216H97.0344C95.8344 27.216 94.9544 26.984 94.3944 26.52C93.8504 26.04 93.5784 25.192 93.5784 23.976V15.648C93.5784 14.368 93.8664 13.48 94.4424 12.984C95.0344 12.472 96.0104 12.224 97.3704 12.24L101.282 12.264V6.792H104.21ZM96.7704 24.864H100.97C101.178 24.864 101.282 24.752 101.282 24.528V14.616L96.7704 14.568C96.5624 14.568 96.4584 14.68 96.4584 14.904V24.528C96.4584 24.752 96.5624 24.864 96.7704 24.864ZM111.441 27.168C109.985 27.168 108.929 26.888 108.273 26.328C107.633 25.768 107.313 24.824 107.313 23.496V15.6C107.313 14.272 107.593 13.36 108.153 12.864C108.713 12.352 109.673 12.096 111.033 12.096H113.985C115.361 12.096 116.337 12.352 116.913 12.864C117.505 13.36 117.801 14.272 117.801 15.6V21.336H110.241V24.408C110.241 24.616 110.345 24.72 110.553 24.72H117.417V27.168H111.441ZM110.553 14.448C110.345 14.448 110.241 14.56 110.241 14.784V19.224H114.897V14.784C114.897 14.56 114.793 14.448 114.585 14.448H110.553ZM127.785 12.096C128.985 12.096 129.865 12.336 130.425 12.816C130.985 13.296 131.265 14.144 131.265 15.36V27H128.361V14.784C128.361 14.56 128.257 14.448 128.049 14.448H123.849C123.625 14.448 123.513 14.56 123.513 14.784L123.537 27H120.657L120.609 12.312H123.201L123.417 13.8C123.737 12.664 124.625 12.096 126.081 12.096H127.785Z" fill="white"/>
<path d="M63.1777 49.916C63.1777 50.235 63.0768 50.4954 62.875 50.6973C62.6797 50.8991 62.4225 51 62.1035 51H58.2559C57.9368 51 57.6732 50.8991 57.4648 50.6973C57.263 50.4954 57.1621 50.235 57.1621 49.916V46.0391H58.5195V49.7988H61.8203V46.1562L57.6016 41.0586C57.3086 40.707 57.1621 40.3197 57.1621 39.8965V36.8008C57.1621 36.4818 57.263 36.2214 57.4648 36.0195C57.6732 35.8177 57.9368 35.7168 58.2559 35.7168H62.1035C62.4225 35.7168 62.6797 35.8177 62.875 36.0195C63.0768 36.2214 63.1777 36.4818 63.1777 36.8008V40.3555H61.8203V36.918H58.5195V40.1406L62.7578 45.2383C63.0378 45.5768 63.1777 45.9577 63.1777 46.3809V49.916ZM66.7812 51H65.502V35.7168H66.7812V51ZM74.457 49.8965C74.457 50.6322 74.0892 51 73.3535 51H70.0918C69.3626 51 68.998 50.6322 68.998 49.8965V42.6016C68.998 41.8659 69.3626 41.498 70.0918 41.498H73.3535C74.0892 41.498 74.457 41.8659 74.457 42.6016V49.8965ZM73.1582 49.8574V42.6406H70.2969V49.8574H73.1582ZM79.9941 51H78.1484C77.4193 51 77.0547 50.6322 77.0547 49.8965V42.6406H75.9121V41.498H77.0547V38.5391H78.334V41.498H79.9941V42.6406H78.334V49.8574H79.9941V51ZM86.7715 49.8965C86.7715 50.6322 86.4036 51 85.668 51H82.6895C81.9538 51 81.5859 50.6322 81.5859 49.8965V47.7383H82.8652V49.877H85.4922V47.9824L82.0938 45.1992C81.7682 44.9388 81.6055 44.6003 81.6055 44.1836V42.6016C81.6055 41.8659 81.9733 41.498 82.709 41.498H85.6484C86.3841 41.498 86.752 41.8659 86.752 42.6016V44.4961H85.4922V42.6211H82.8652V44.2812L86.293 47.0645C86.612 47.3184 86.7715 47.6634 86.7715 48.0996V49.8965Z" fill="white"/>
<defs>
<linearGradient id="paint0_linear_8_40" x1="23.5" y1="0" x2="23.5" y2="56" gradientUnits="userSpaceOnUse">
<stop stop-color="#FFC400"/>
<stop offset="1" stop-color="#997705"/>
</linearGradient>
</defs>
</svg>
