<svg width="482" height="486" viewBox="0 0 482 486" fill="none" xmlns="http://www.w3.org/2000/svg">
<path d="M131.25 0.313011L150.156 97C149.882 97.174 149.616 97.356 149.344 97.53L76 79.876L93.47 154.096C92.8122 155.141 92.1655 156.193 91.53 157.251L0.25 148.376L73.25 199.532C72.4408 202.358 71.7006 205.202 71.03 208.064L6.5 248.064L70.406 287.284C70.686 288.566 70.976 289.854 71.281 291.127L24.813 327.69L80.783 319.783C84.269 327.928 88.3529 335.804 93.001 343.347L76.001 415.691L140.345 400.221L131.251 475.784L183.439 417.724C191.053 420.564 198.852 422.881 206.782 424.66L244.189 485.754L281 425.656C286.839 424.507 292.617 423.068 298.313 421.344L327.719 452.374L322.249 412.187C330.119 408.502 337.712 404.251 344.969 399.469L412.374 415.686L396.468 348.03C402.123 339.487 407.036 330.475 411.154 321.094L458.717 327.688L419.622 297.25C420.8 292.997 421.822 288.703 422.685 284.375L481.872 248.062L422.122 211.032C420.452 203.302 418.27 195.691 415.592 188.25L475.092 140.594L401.152 157.624C399.507 154.85 397.788 152.12 395.997 149.438L412.372 79.875L342.028 96.813C336.371 93.2381 330.519 89.983 324.498 87.063L327.718 23.687L290.498 74.687C287.959 74.0494 285.406 73.4659 282.842 72.937L244.186 9.78101L204.904 73.971C200.154 75.0906 195.452 76.4037 190.81 77.907L131.25 0.313011ZM246.25 89.187C334.673 89.187 406.125 160.671 406.125 249.094C406.125 337.517 334.673 408.969 246.25 408.969C157.827 408.969 86.344 337.516 86.344 249.093C86.344 160.67 157.827 89.187 246.25 89.187ZM295.28 133.344C290.002 133.459 285.073 135.727 278.344 142.906L271.781 149.906L264.971 143.186C257.581 135.906 251.753 133.896 245.845 134.156C239.935 134.416 232.989 137.492 225.22 143.781L219 148.813L213.094 143.47C204.194 135.417 196.609 133.03 189.344 133.406C184.056 133.679 178.569 135.671 173.094 139.156L214.064 212.844C229.509 222.289 261.067 225.859 282.781 214.938L322.407 141.563C314.897 138.5 308.149 135.361 302.313 134.156C300.201 133.72 298.243 133.401 296.345 133.344C295.989 133.334 295.635 133.336 295.282 133.344H295.28ZM205.28 229.531C187.263 242.279 172.792 264.241 167.187 296.407C161.751 327.604 170.314 348.673 185.469 363.032C200.623 377.392 223.369 384.802 246.469 384.502C269.567 384.202 292.603 376.192 308.093 361.564C323.583 346.938 332.343 326.108 327.373 296.346C322.241 265.61 308.99 244.231 292.218 231.283C263.72 246.36 228.064 243.155 205.278 229.533L205.28 229.531Z" fill="white"/>
</svg>
